<?xml version="1.0" encoding="utf-8"?>
<!-- Generator: Adobe Illustrator 21.0.2, SVG Export Plug-In . SVG Version: 6.00 Build 0)  -->
<svg version="1.1" id="Layer_1" xmlns="http://www.w3.org/2000/svg" xmlns:xlink="http://www.w3.org/1999/xlink" x="0px" y="0px"
	 viewBox="0 0 212.6 212.6" style="enable-background:new 0 0 212.6 212.6;" xml:space="preserve">
<style type="text/css">
	.st0{clip-path:url(#SVGID_2_);}
	.st1{fill:#D9EFEC;}
	.st2{fill:#231F20;}
	.st3{fill:#B8E1DC;}
	.st4{fill:#FF1751;}
	.st5{fill:#FF909C;}
	.st6{fill:#34BCB1;}
	.st7{fill:#35BDB2;}
	.st8{fill:#35BCB1;}
	.st9{fill:#35BCB1;stroke:#000000;stroke-width:3.0007;stroke-linecap:round;stroke-linejoin:round;stroke-miterlimit:10;}
</style>
<g>
	<defs>
		<circle id="SVGID_1_" cx="106.3" cy="106.3" r="106.3"/>
	</defs>
	<clipPath id="SVGID_2_">
		<use xlink:href="#SVGID_1_"  style="overflow:visible;"/>
	</clipPath>
	<g class="st0">
		<g>
			<circle cx="106.3" cy="106.3" r="114.9"/>
		</g>
		<g>
			<path class="st1" d="M106.3,210.9C48.6,210.9,1.7,164,1.7,106.3C1.7,48.6,48.6,1.7,106.3,1.7c57.7,0,104.6,46.9,104.6,104.6
				C210.9,164,164,210.9,106.3,210.9z"/>
			<path class="st2" d="M106.3,3.3c56.8,0,103,46.2,103,103s-46.2,103-103,103s-103-46.2-103-103S49.5,3.3,106.3,3.3 M106.3,0
				C47.6,0,0,47.6,0,106.3s47.6,106.3,106.3,106.3S212.6,165,212.6,106.3S165,0,106.3,0L106.3,0z"/>
		</g>
		<circle class="st3" cx="106.3" cy="105.2" r="71.4"/>
		<g>
			<path d="M193.3,138.1l-12.7-4.4l1.2-3.5l12.7,4.4l1.5-4.5l3,1l-4.3,12.5l-3-1L193.3,138.1z"/>
			<path d="M179,160.2c-2.3-1.4-3.2-3.2-2.7-5.4l-7.3,0.4l2.4-3.9l6.5-0.3l1.4-2.2l-4.5-2.8l2-3.1l14.1,8.9l-3.4,5.3
				c-1.4,2.2-2.7,3.5-4.1,4C182.1,161.6,180.7,161.3,179,160.2z M179.7,155.4c0.1,0.6,0.5,1.2,1.3,1.6c0.8,0.5,1.4,0.6,1.9,0.4
				c0.5-0.2,1.1-0.8,1.8-1.9l1.5-2.4l-4.2-2.6l-1.4,2.3C179.9,153.9,179.6,154.8,179.7,155.4z"/>
			<path d="M165.4,165.2c-1-0.1-1.9,0.2-2.6,0.9c-0.8,0.7-1.1,1.6-1,2.6s0.6,2,1.5,2.9l6.3,6.7l-2.7,2.6l-6.4-6.8
				c-1.7-1.8-2.5-3.6-2.4-5.4c0.1-1.9,0.9-3.5,2.4-4.9c1.5-1.4,3.2-2.1,5.1-2.1c1.9,0,3.6,0.9,5.3,2.7l6.4,6.8l-2.7,2.6l-6.3-6.7
				C167.4,165.9,166.4,165.4,165.4,165.2z"/>
			<path d="M148.7,192.5l-1.6-2.8l6.7-3.9l-1.8-3.1l-6.4,3.7l-1.6-2.8l6.4-3.7l-3.3-5.7l3.2-1.9l8.3,14.4L148.7,192.5z"/>
			<path d="M129.3,199.5l-1-3.1l7.4-2.3l-1.1-3.4l-7,2.2l-1-3.1l7-2.2l-2-6.2l3.5-1.1l5,15.9L129.3,199.5z"/>
			<path d="M118.7,184.6l1.6,16.6l-3.7,0.4l-1.3-13.3l-7.1,0.7l-0.3-3.3L118.7,184.6z"/>
			<path d="M88.8,200.7l0.4-3.3l8.2,1l0.4-3.4l-7.4-0.9l0.4-3.1l7.4,0.9l0.4-3.4l-8.5-1l0.4-3.3l12.2,1.4l-1.9,16.6L88.8,200.7z"/>
			<path d="M59.2,183.6c1.2-2.4,2.9-3.4,5.2-3.2l-1-7.2l4.1,2.1l0.9,6.4l2.3,1.2l2.4-4.7l3.3,1.7l-7.6,14.8l-5.6-2.9
				c-2.3-1.2-3.8-2.4-4.3-3.7C58.1,186.8,58.3,185.3,59.2,183.6z M64.1,183.9c-0.6,0.2-1.1,0.6-1.5,1.4c-0.4,0.8-0.5,1.5-0.2,2
				c0.3,0.5,0.9,1,2,1.6l2.5,1.3l2.2-4.4l-2.4-1.2C65.5,183.9,64.7,183.7,64.1,183.9z"/>
			<path d="M53,170.5c0-1-0.3-1.8-1.1-2.5c-0.8-0.7-1.7-1-2.6-0.8c-1,0.2-1.9,0.8-2.8,1.8l-6.1,6.9l-2.8-2.5l6.2-7
				c1.6-1.8,3.3-2.8,5.2-2.8c1.9-0.1,3.6,0.6,5.1,1.9c1.6,1.4,2.4,3,2.6,4.9c0.1,1.9-0.6,3.7-2.2,5.5l-6.2,7l-2.8-2.5l6.1-6.9
				C52.5,172.5,52.9,171.5,53,170.5z"/>
			<path d="M40.4,150.2l4.1,6l-13.7,9.4l-3.7-5.3c-0.6-0.9-1.1-1.8-1.3-2.6c-0.2-0.8-0.3-1.5-0.1-2.1c0.3-1.1,0.9-2,1.8-2.6
				c1.1-0.7,2.1-0.9,3.1-0.6c0.3,0.1,0.6,0.2,0.7,0.3c0.1,0.1,0.3,0.2,0.6,0.3c-0.4-1-0.5-1.9-0.2-2.8c0.2-0.9,0.8-1.7,1.7-2.2
				c1-0.7,2-0.9,3.2-0.8C37.8,147.2,39.1,148.3,40.4,150.2z M34.3,158.7l-1-1.5c-0.6-0.9-1.1-1.4-1.6-1.7c-0.5-0.3-1-0.2-1.6,0.2
				s-0.9,0.9-0.8,1.4c0.1,0.5,0.4,1.2,1,2.1l1,1.5L34.3,158.7z M39.8,154.9l-1.4-2.1c-0.6-0.9-1.2-1.5-1.7-1.8
				c-0.5-0.3-1.1-0.2-1.7,0.2c-0.6,0.4-0.9,1-0.8,1.6c0.1,0.6,0.5,1.4,1.2,2.4l1.2,1.8L39.8,154.9z"/>
			<path d="M32.1,133.9l1.4,3.5l-6.1,2.4l-7.2,9.1l-1.5-3.7l4.4-5.6l-7.1-1l-1.5-3.7l11.5,1.6L32.1,133.9z"/>
			<path d="M19.6,73.6l12.7,4.5l-1.2,3.5l-12.7-4.5l-1.6,4.5l-3-1.1l4.4-12.4l3,1.1L19.6,73.6z"/>
			<path d="M34.1,51.7c2.2,1.4,3.1,3.3,2.6,5.5l7.3-0.3l-2.5,3.8l-6.5,0.2L33.7,63l4.5,2.9l-2,3.1l-14-9l3.4-5.3
				c1.4-2.2,2.8-3.5,4.1-4C31,50.3,32.5,50.6,34.1,51.7z M33.3,56.5c-0.1-0.6-0.5-1.2-1.3-1.6c-0.8-0.5-1.4-0.6-1.9-0.4
				c-0.5,0.2-1.1,0.8-1.8,1.8l-1.5,2.3l4.1,2.7l1.5-2.3C33.1,58,33.4,57.1,33.3,56.5z"/>
			<path d="M47.7,46.8c1,0.1,1.9-0.1,2.6-0.9c0.8-0.7,1.1-1.6,1-2.5c-0.1-1-0.6-2-1.5-2.9l-6.3-6.7l2.7-2.5l6.3,6.8
				c1.6,1.8,2.4,3.6,2.3,5.4c-0.1,1.9-0.9,3.5-2.4,4.9c-1.5,1.4-3.2,2.1-5.1,2.1c-1.9,0-3.6-0.9-5.3-2.7l-6.3-6.8l2.7-2.5l6.3,6.7
				C45.8,46.1,46.8,46.7,47.7,46.8z"/>
			<path d="M64.7,19.7l1.6,2.8l-6.7,3.8l1.8,3.1l6.4-3.6l1.6,2.8L63,32.4l3.2,5.7l-3.2,1.8l-8.2-14.5L64.7,19.7z"/>
			<path d="M84.2,12.9l1,3.1l-7.4,2.3l1.1,3.4l7-2.1l1,3.1l-7,2.1l1.9,6.2l-3.6,1.1l-4.9-15.9L84.2,12.9z"/>
			<path d="M94.7,27.9l-1.4-16.6l3.7-0.3l1.2,13.3l7.1-0.6l0.3,3.3L94.7,27.9z"/>
			<path d="M124.7,12.1l-0.4,3.3l-8.2-1l-0.4,3.4l7.4,0.9l-0.4,3.1l-7.4-0.9l-0.4,3.4l8.5,1.1l-0.4,3.3l-12.2-1.5l2.1-16.5
				L124.7,12.1z"/>
			<path d="M154.2,29.4c-1.2,2.4-3,3.4-5.2,3.1l1,7.2l-4.1-2.1l-0.8-6.4l-2.3-1.2l-2.5,4.7L137,33l7.7-14.8l5.6,2.9
				c2.3,1.2,3.7,2.4,4.3,3.7C155.2,26.2,155.1,27.7,154.2,29.4z M149.3,29.1c0.6-0.2,1.1-0.6,1.5-1.4c0.4-0.8,0.5-1.5,0.2-2
				c-0.3-0.5-0.9-1.1-2-1.6l-2.5-1.3l-2.3,4.4l2.4,1.3C147.8,29.1,148.7,29.3,149.3,29.1z"/>
			<path d="M160.3,42.6c-0.1,1,0.3,1.8,1.1,2.5c0.8,0.7,1.7,1,2.6,0.8s1.9-0.7,2.8-1.7l6.2-6.8l2.8,2.5l-6.2,6.9
				c-1.6,1.8-3.4,2.7-5.2,2.8c-1.9,0.1-3.6-0.6-5.1-2c-1.5-1.4-2.4-3-2.5-4.9c-0.1-1.9,0.6-3.7,2.2-5.5l6.2-6.9l2.8,2.5l-6.2,6.8
				C160.8,40.6,160.3,41.6,160.3,42.6z"/>
			<path d="M173.2,63.9l-4.5-6.8L184.2,47l4,6c0.7,1,1.2,2,1.4,3c0.2,0.9,0.3,1.7,0.1,2.4c-0.3,1.2-1,2.2-2,2.8
				c-1.2,0.8-2.4,1-3.5,0.6c-0.4-0.1-0.6-0.2-0.8-0.3c-0.1-0.1-0.3-0.2-0.6-0.4c0.4,1.1,0.5,2.1,0.2,3.1c-0.3,1-0.9,1.8-1.9,2.5
				c-1.1,0.7-2.3,1-3.6,0.8C176,67.2,174.6,66.1,173.2,63.9z M173.9,58.7l1.6,2.4c0.7,1,1.3,1.7,1.8,2c0.6,0.3,1.2,0.3,1.9-0.2
				c0.7-0.5,1-1,0.9-1.7c-0.1-0.7-0.6-1.6-1.3-2.7l-1.3-2L173.9,58.7z M180.2,54.5l1.1,1.6c0.6,1,1.2,1.6,1.7,1.9
				c0.5,0.3,1.1,0.3,1.8-0.2c0.7-0.5,1-1,0.9-1.5c-0.1-0.6-0.4-1.4-1.1-2.4l-1.1-1.7L180.2,54.5z"/>
			<path d="M181.7,82.3l-1.4-3.9l6.9-2.4l8.5-9.7l1.5,4.2l-5.2,6l7.8,1.5l1.5,4.2l-12.7-2.4L181.7,82.3z"/>
		</g>
		<g>
			<polygon class="st4" points="191.9,109.9 191.9,102.7 189.8,100.8 183.9,106.2 189.8,111.8 			"/>
			<polygon class="st4" points="201.8,109.9 201.8,102.7 199.7,100.8 193.8,106.2 199.7,111.8 			"/>
		</g>
		<g>
			<polygon class="st4" points="20.7,102.7 20.7,109.9 22.8,111.8 28.7,106.3 22.8,100.8 			"/>
			<polygon class="st4" points="10.8,102.7 10.8,109.9 12.9,111.8 18.8,106.3 12.9,100.8 			"/>
		</g>
		<g>
			<polygon class="st5" points="123.2,134.6 89.2,134.6 80.2,144.4 105.9,172.2 132.2,144.4 			"/>
			<path d="M105.9,173.7C105.9,173.7,105.9,173.7,105.9,173.7c-0.4,0-0.8-0.2-1.1-0.5l-25.8-27.8c-0.5-0.6-0.5-1.5,0-2l9-9.8
				c0.3-0.3,0.7-0.5,1.1-0.5h34c0.4,0,0.8,0.2,1.1,0.5l9,9.8c0.5,0.6,0.5,1.5,0,2L107,173.2C106.8,173.5,106.4,173.7,105.9,173.7z
				 M82.2,144.4L106,170l24.2-25.6l-7.6-8.3H89.9L82.2,144.4z"/>
		</g>
		<g>
			<polygon class="st4" points="126.9,115.8 144.3,115.8 152.9,106.5 128.4,80.1 			"/>
			<path d="M144.3,117.3h-17.4c-0.4,0-0.8-0.2-1.1-0.5c-0.3-0.3-0.4-0.7-0.4-1.1l1.5-35.7c0-0.6,0.4-1.1,1-1.3
				c0.6-0.2,1.2-0.1,1.6,0.4l24.5,26.4c0.5,0.6,0.5,1.5,0,2l-8.6,9.3C145.2,117.1,144.8,117.3,144.3,117.3z M128.5,114.3h15.2
				l7.2-7.8l-21.1-22.7L128.5,114.3z"/>
		</g>
		<g>
			<polygon class="st4" points="85.2,115.8 67.8,115.8 59.3,106.5 83.7,80.1 			"/>
			<path d="M85.2,117.3H67.8c-0.4,0-0.8-0.2-1.1-0.5l-8.6-9.3c-0.5-0.6-0.5-1.5,0-2l24.5-26.4c0.4-0.4,1-0.6,1.6-0.4
				c0.6,0.2,1,0.7,1,1.3l1.5,35.7c0,0.4-0.1,0.8-0.4,1.1C86,117.1,85.6,117.3,85.2,117.3z M68.5,114.3h15.2l-1.3-30.5l-21.1,22.7
				L68.5,114.3z"/>
		</g>
		<g>
			<polygon class="st4" points="109.8,134.6 118.8,144.4 105.9,172.2 93.6,144.4 102.6,134.6 			"/>
			<path d="M105.9,173.7C105.9,173.7,105.9,173.7,105.9,173.7c-0.6,0-1.1-0.4-1.4-0.9L92.2,145c-0.2-0.5-0.1-1.2,0.3-1.6l9-9.8
				c0.3-0.3,0.7-0.5,1.1-0.5h7.3c0.4,0,0.8,0.2,1.1,0.5l9,9.8c0.4,0.4,0.5,1.1,0.3,1.6l-12.9,27.8
				C107.1,173.3,106.5,173.7,105.9,173.7z M95.3,144.7l10.7,23.9l11.1-23.9l-7.9-8.6h-5.9L95.3,144.7z"/>
		</g>
		<g>
			<path class="st6" d="M106.1,41.6c0,0-20.2,6.5-21.8,35.8c-0.7,12.4,1.5,49.7,2.4,49.7s19.4,0,19.4,0h0.1c0,0,18.5,0,19.4,0
				c0.9,0,3.1-37.3,2.4-49.7c-1.6-29.3-21.8-35.8-21.8-35.8H106.1z"/>
			<path d="M125.6,128.6H86.7c-0.4,0-0.8-0.2-1.1-0.5c-0.4-0.4-1.2-1.2-2.2-21.6c-0.5-9.9-0.9-22.7-0.6-29.2
				c1.7-30,22-36.9,22.9-37.2c0.1,0,0.3-0.1,0.5-0.1h0.1c0.2,0,0.3,0,0.5,0.1c0.9,0.3,21.2,7.2,22.9,37.2c0.4,6.5-0.1,19.3-0.6,29.2
				c-1.1,20.4-1.8,21.2-2.2,21.6C126.5,128.4,126,128.6,125.6,128.6z M87.9,125.6h36.6c0.9-5.8,2.7-36.4,2.1-48.1
				c-1.4-25.7-17.7-33.3-20.4-34.3c-2.8,1.1-18.9,8.4-20.4,34.3C85.1,89.2,87,119.8,87.9,125.6z"/>
		</g>
		<g>
			<circle class="st4" cx="106.1" cy="69.1" r="11"/>
			<path d="M106.1,81.6c-6.9,0-12.5-5.6-12.5-12.5c0-6.9,5.6-12.5,12.5-12.5c6.9,0,12.5,5.6,12.5,12.5C118.6,76,113,81.6,106.1,81.6
				z M106.1,59.6c-5.2,0-9.5,4.3-9.5,9.5c0,5.2,4.3,9.5,9.5,9.5c5.2,0,9.5-4.3,9.5-9.5C115.6,63.9,111.3,59.6,106.1,59.6z"/>
		</g>
		<g>
			<circle class="st5" cx="106.4" cy="94.7" r="5.8"/>
			<path d="M106.4,102c-4,0-7.3-3.3-7.3-7.3s3.3-7.3,7.3-7.3s7.3,3.3,7.3,7.3S110.4,102,106.4,102z M106.4,90.4
				c-2.4,0-4.3,1.9-4.3,4.3s1.9,4.3,4.3,4.3s4.3-1.9,4.3-4.3S108.8,90.4,106.4,90.4z"/>
		</g>
		<g>
			<polygon class="st7" points="120.6,127.1 91.7,127.1 89.1,134.6 123.3,134.6 			"/>
			<path d="M123.3,136.1H89.1c-0.5,0-0.9-0.2-1.2-0.6s-0.4-0.9-0.2-1.4l2.6-7.5c0.2-0.6,0.8-1,1.4-1h28.9c0.6,0,1.2,0.4,1.4,1
				l2.6,7.5c0.2,0.5,0.1,1-0.2,1.4S123.7,136.1,123.3,136.1z M91.2,133.1h29.9l-1.6-4.5H92.8L91.2,133.1z"/>
		</g>
		<g>
			<line class="st8" x1="126.9" y1="115.8" x2="85.2" y2="115.8"/>
			<path d="M126.9,117.3H85.2c-0.8,0-1.5-0.7-1.5-1.5s0.7-1.5,1.5-1.5h41.7c0.8,0,1.5,0.7,1.5,1.5S127.8,117.3,126.9,117.3z"/>
		</g>
		<g>
			<path class="st9" d="M81.5,143.9"/>
		</g>
		<g>
			<polygon class="st4" points="125.6,127.1 86.7,127.1 85.2,115.8 126.9,115.8 			"/>
			<path d="M125.6,128.6H86.7c-0.8,0-1.4-0.6-1.5-1.3L83.7,116c-0.1-0.4,0.1-0.9,0.4-1.2c0.3-0.3,0.7-0.5,1.1-0.5h41.7
				c0.4,0,0.8,0.2,1.1,0.5s0.4,0.7,0.4,1.2l-1.3,11.3C127,128,126.4,128.6,125.6,128.6z M88.1,125.6h36.2l0.9-8.3H86.9L88.1,125.6z"
				/>
		</g>
		<g>
			<path d="M137.5,72.8c-0.4,0-0.8-0.1-1.1-0.4c-0.6-0.6-0.6-1.5,0-2.1l4.5-4.5c0.6-0.6,1.5-0.6,2.1,0s0.6,1.5,0,2.1l-4.5,4.5
				C138.3,72.7,137.9,72.8,137.5,72.8z"/>
		</g>
		<g>
			<path d="M142.1,72.8c-0.4,0-0.8-0.1-1.1-0.4l-4.5-4.5c-0.6-0.6-0.6-1.5,0-2.1s1.5-0.6,2.1,0l4.5,4.5c0.6,0.6,0.6,1.5,0,2.1
				C142.8,72.7,142.4,72.8,142.1,72.8z"/>
		</g>
		<rect x="155.1" y="79.4" transform="matrix(0.7071 -0.7071 0.7071 0.7071 -11.7975 135.4063)" class="st4" width="5" height="5"/>
		<g>
			<path d="M74.8,72.8c-0.4,0-0.8-0.1-1.1-0.4l-4.5-4.5c-0.6-0.6-0.6-1.5,0-2.1s1.5-0.6,2.1,0l4.5,4.5c0.6,0.6,0.6,1.5,0,2.1
				C75.6,72.7,75.2,72.8,74.8,72.8z"/>
		</g>
		<g>
			<path d="M70.3,72.8c-0.4,0-0.8-0.1-1.1-0.4c-0.6-0.6-0.6-1.5,0-2.1l4.5-4.5c0.6-0.6,1.5-0.6,2.1,0s0.6,1.5,0,2.1l-4.5,4.5
				C71.1,72.7,70.7,72.8,70.3,72.8z"/>
		</g>
		<rect x="52.3" y="79.4" transform="matrix(-0.7071 -0.7071 0.7071 -0.7071 35.6466 178.6533)" class="st4" width="5" height="5"/>
		<g>
			<path d="M70.5,137.1c-0.4,0-0.8-0.1-1.1-0.4c-0.6-0.6-0.6-1.5,0-2.1L74,130c0.6-0.6,1.5-0.6,2.1,0s0.6,1.5,0,2.1l-4.5,4.5
				C71.3,136.9,70.9,137.1,70.5,137.1z"/>
		</g>
		<g>
			<path d="M75,137.1c-0.4,0-0.8-0.1-1.1-0.4l-4.5-4.5c-0.6-0.6-0.6-1.5,0-2.1s1.5-0.6,2.1,0l4.5,4.5c0.6,0.6,0.6,1.5,0,2.1
				C75.8,136.9,75.4,137.1,75,137.1z"/>
		</g>
		<rect x="52.5" y="118" transform="matrix(-0.7071 0.7071 -0.7071 -0.7071 179.1517 166.7184)" class="st4" width="5" height="5"/>
		<g>
			<path d="M142.3,137.1c-0.4,0-0.8-0.1-1.1-0.4l-4.5-4.5c-0.6-0.6-0.6-1.5,0-2.1s1.5-0.6,2.1,0l4.5,4.5c0.6,0.6,0.6,1.5,0,2.1
				C143.1,136.9,142.7,137.1,142.3,137.1z"/>
		</g>
		<g>
			<path d="M137.8,137.1c-0.4,0-0.8-0.1-1.1-0.4c-0.6-0.6-0.6-1.5,0-2.1l4.5-4.5c0.6-0.6,1.5-0.6,2.1,0s0.6,1.5,0,2.1l-4.5,4.5
				C138.5,136.9,138.2,137.1,137.8,137.1z"/>
		</g>
		<rect x="155.3" y="118" transform="matrix(0.7071 0.7071 -0.7071 0.7071 131.3912 -76.2809)" class="st4" width="5" height="5"/>
	</g>
</g>
</svg>
