<?xml version="1.0" encoding="utf-8"?>
<!-- Generator: Adobe Illustrator 20.0.0, SVG Export Plug-In . SVG Version: 6.00 Build 0)  -->
<svg version="1.1" id="Layer_1" xmlns="http://www.w3.org/2000/svg" xmlns:xlink="http://www.w3.org/1999/xlink" x="0px" y="0px"
	 viewBox="0 0 226.7 274" style="enable-background:new 0 0 226.7 274;" xml:space="preserve">
<style type="text/css">
	.st0{fill:#FF909C;}
	.st1{fill:#FF1751;}
	.st2{fill:#34BCB1;}
	.st3{fill:#34BCB1;stroke:#000000;stroke-width:4.2836;stroke-linecap:round;stroke-linejoin:round;stroke-miterlimit:10;}
</style>
<g>
	<path d="M24.7,193.5v21.3h-5.9v-21.3h-7.5v-5.1h20.9v5.1H24.7z"/>
	<path d="M63.2,197.1c0,4.2-1.7,7-5,8.2l6.7,9.5h-7.3l-5.9-8.4h-4.1v8.4h-5.9v-26.5h10c4.1,0,7,0.7,8.8,2.1
		C62.3,191.8,63.2,194.1,63.2,197.1z M56.1,200.3c0.7-0.7,1.1-1.7,1.1-3.1c0-1.4-0.4-2.4-1.1-2.9c-0.8-0.5-2.1-0.8-4-0.8h-4.4v7.8
		H52C54,201.3,55.3,200.9,56.1,200.3z"/>
	<path d="M81.5,208c1,1.2,2.3,1.8,4,1.8s3-0.6,4-1.8c1-1.2,1.5-2.9,1.5-5v-14.6h5.9v14.8c0,3.8-1.1,6.8-3.2,8.8
		c-2.1,2.1-4.8,3.1-8.1,3.1c-3.3,0-6-1-8.2-3.1c-2.1-2.1-3.2-5-3.2-8.8v-14.8H80V203C80,205.1,80.5,206.8,81.5,208z"/>
	<path d="M126.4,188.4v5.2h-12.3v5.7h11.7v5.2h-11.7v10.4h-5.9v-26.5H126.4z"/>
	<path d="M154.8,188.4v5.2h-12.3v5.7h11.7v5.2h-11.7v10.4h-5.9v-26.5H154.8z"/>
	<path d="M165,214.8v-26.5h5.9v21.2h11.3v5.3H165z"/>
	<path d="M210.9,188.4v5.3h-13.2v5.4h11.8v5h-11.8v5.5h13.6v5.2h-19.5v-26.5H210.9z"/>
	<path d="M76.2,235.2c0,4.2-1.7,7-5,8.2l6.7,9.5h-7.3l-5.9-8.4h-4.1v8.4h-5.9v-26.5h10c4.1,0,7,0.7,8.8,2.1
		C75.4,229.9,76.2,232.1,76.2,235.2z M69.1,238.3c0.7-0.7,1.1-1.7,1.1-3.1c0-1.4-0.4-2.4-1.1-2.9c-0.8-0.5-2.1-0.8-4-0.8h-4.4v7.8
		H65C67,239.3,68.4,239,69.1,238.3z"/>
	<path d="M94.6,246c1,1.2,2.3,1.8,4,1.8s3-0.6,4-1.8c1-1.2,1.5-2.9,1.5-5v-14.6h5.9v14.8c0,3.8-1.1,6.8-3.2,8.8
		c-2.1,2.1-4.8,3.1-8.1,3.1c-3.3,0-6-1-8.2-3.1c-2.1-2.1-3.2-5-3.2-8.8v-14.8h5.9V241C93.1,243.1,93.6,244.8,94.6,246z"/>
	<path d="M132.8,252.8h-11.6v-26.5h10.3c1.8,0,3.3,0.2,4.6,0.6c1.3,0.4,2.3,1,2.9,1.7c1.2,1.4,1.8,2.9,1.8,4.6c0,2.1-0.7,3.6-2,4.6
		c-0.5,0.4-0.8,0.6-0.9,0.7c-0.2,0.1-0.5,0.2-0.9,0.4c1.6,0.4,2.9,1.1,3.9,2.2c1,1.1,1.5,2.5,1.5,4.2c0,1.8-0.6,3.5-1.9,4.9
		C139,252,136.5,252.8,132.8,252.8z M127.1,237.1h2.8c1.6,0,2.9-0.2,3.7-0.5c0.8-0.4,1.2-1.1,1.2-2.3c0-1.2-0.4-1.9-1.1-2.3
		c-0.7-0.4-2-0.6-3.7-0.6h-2.8V237.1z M127.1,247.8h4c1.7,0,3-0.2,3.8-0.6c0.8-0.4,1.3-1.2,1.3-2.5c0-1.2-0.4-2-1.3-2.4
		c-0.9-0.4-2.3-0.6-4.3-0.6h-3.5V247.8z"/>
	<path d="M163.2,252.8h-5.9v-10.4l-9.2-16h6.4l5.7,9.8l5.7-9.8h6.4l-9.2,16V252.8z"/>
</g>
<g>
	<polygon class="st0" points="100.9,139.9 66.6,105.6 47.6,106.4 45.6,160.4 100.1,158.9 	"/>
	<path d="M45.6,162.6c-0.6,0-1.1-0.2-1.5-0.6c-0.4-0.4-0.6-1-0.6-1.6l2-54c0-1.1,0.9-2,2.1-2.1l19-0.8c0.6,0,1.2,0.2,1.6,0.6
		l34.3,34.3c0.4,0.4,0.7,1,0.6,1.6l-0.8,19c0,1.1-1,2-2.1,2.1L45.6,162.6C45.6,162.6,45.6,162.6,45.6,162.6z M49.7,108.5l-1.9,49.8
		l50.2-1.4l0.7-16.1l-33-33L49.7,108.5z"/>
</g>
<g>
	<polygon class="st1" points="123.7,124.7 141.2,142.3 159.3,141.6 161.2,90.2 	"/>
	<path d="M141.2,144.5c-0.6,0-1.1-0.2-1.5-0.6l-17.6-17.6c-0.4-0.4-0.6-1-0.6-1.6c0-0.6,0.3-1.1,0.7-1.5l37.6-34.5
		c0.6-0.6,1.6-0.7,2.3-0.4c0.8,0.4,1.3,1.2,1.2,2l-1.9,51.3c0,1.1-0.9,2-2.1,2.1L141.2,144.5C141.3,144.5,141.3,144.5,141.2,144.5z
		 M126.7,124.8l15.3,15.3l15.1-0.6l1.7-44.2L126.7,124.8z"/>
</g>
<g>
	<polygon class="st1" points="81.6,82.7 64,65.1 64.7,47 116.1,45.1 	"/>
	<path d="M81.6,84.8c-0.6,0-1.1-0.2-1.5-0.6L62.5,66.6c-0.4-0.4-0.7-1-0.6-1.6l0.8-18c0-1.1,0.9-2,2.1-2L116,43c0.9,0,1.7,0.5,2,1.2
		s0.2,1.7-0.4,2.3L83.1,84.1C82.8,84.5,82.2,84.8,81.6,84.8C81.6,84.8,81.6,84.8,81.6,84.8z M66.2,64.2l15.3,15.3L111,47.4
		l-44.2,1.7L66.2,64.2z"/>
</g>
<g>
	<polygon class="st1" points="87.4,126.4 86.6,145.4 45.6,160.4 61.1,119.9 80.1,119.1 	"/>
	<path d="M45.6,162.6c-0.6,0-1.1-0.2-1.5-0.6c-0.6-0.6-0.8-1.5-0.5-2.3l15.5-40.5c0.3-0.8,1.1-1.3,1.9-1.4l19-0.8
		c0.6,0,1.2,0.2,1.6,0.6l7.3,7.3c0.4,0.4,0.7,1,0.6,1.6l-0.8,19c0,0.9-0.6,1.6-1.4,1.9l-41,15C46.1,162.5,45.8,162.6,45.6,162.6z
		 M62.6,122l-13.3,34.8l35.3-12.9l0.7-16.6l-6-6L62.6,122z"/>
</g>
<g>
	<path class="st2" d="M177.6,28.8c0,0-26.9-13.8-58.2,14.1c-13.2,11.8-48.7,51.7-47.7,52.6c0.9,0.9,19.6,19.6,19.6,19.6l0.1,0.1
		c0,0,18.6,18.6,19.6,19.6s40.8-34.5,52.6-47.7c28-31.2,14.1-58.2,14.1-58.2L177.6,28.8z"/>
	<path d="M111,137c-0.6,0-1.2-0.2-1.6-0.6L70.2,97.1c-0.4-0.4-0.7-1-0.6-1.6c0-0.8,0.1-2.4,19.5-24c9.4-10.5,22-23.9,28.9-30.1
		c32-28.6,59.4-15,60.6-14.4c0.2,0.1,0.4,0.2,0.5,0.4l0.1,0.1c0.2,0.2,0.3,0.3,0.4,0.5c0.6,1.2,14.2,28.6-14.4,60.6
		c-6.2,6.9-19.6,19.5-30.1,28.9C113.5,136.9,111.9,137,111,137C111.1,137,111,137,111,137z M74.4,95.2l37,37
		c6.7-4.9,39.5-34,50.7-46.5c24.5-27.4,15.7-51.4,14.1-55.2c-4-1.8-27.6-10.7-55.2,14.1C108.3,55.7,79.3,88.5,74.4,95.2z"/>
</g>
<g>
	<ellipse transform="matrix(0.7071 -0.7071 0.7071 0.7071 3.8784 122.453)" class="st1" cx="149.8" cy="56.5" rx="15.7" ry="15.7"/>
	<path d="M149.8,74.4c-4.6,0-9.1-1.7-12.6-5.2c-7-7-7-18.3,0-25.3c7-7,18.3-7,25.3,0c7,7,7,18.3,0,25.3
		C158.9,72.7,154.3,74.4,149.8,74.4z M149.8,43c-3.5,0-7,1.3-9.6,4c-5.3,5.3-5.3,13.9,0,19.2c5.3,5.3,13.9,5.3,19.2,0
		c2.6-2.6,4-6,4-9.6c0-3.6-1.4-7-4-9.6C156.7,44.3,153.2,43,149.8,43z"/>
</g>
<g>
	
		<ellipse transform="matrix(0.7071 -0.7071 0.7071 0.7071 -22.1405 112.0753)" class="st0" cx="124.2" cy="82.8" rx="8.3" ry="8.3"/>
	<path d="M124.2,93.2c-2.7,0-5.3-1-7.4-3.1c-2-2-3.1-4.6-3.1-7.4s1.1-5.4,3.1-7.4c4.1-4.1,10.7-4.1,14.8,0c2,2,3.1,4.6,3.1,7.4
		s-1.1,5.4-3.1,7.4C129.6,92.2,126.9,93.2,124.2,93.2z M124.2,76.6c-1.6,0-3.2,0.6-4.4,1.8c-1.2,1.2-1.8,2.7-1.8,4.4
		c0,1.6,0.6,3.2,1.8,4.4c2.4,2.4,6.3,2.4,8.7,0c1.2-1.2,1.8-2.7,1.8-4.4c0-1.6-0.6-3.2-1.8-4.4C127.4,77.2,125.8,76.6,124.2,76.6z"
		/>
</g>
<g>
	<polygon class="st2" points="105.9,129.8 76.8,100.6 66.5,105.5 101,140 	"/>
	<path d="M101,142.1c-0.6,0-1.1-0.2-1.5-0.6L65,107.1c-0.5-0.5-0.7-1.2-0.6-1.9c0.1-0.7,0.6-1.3,1.2-1.6l10.2-4.9
		c0.8-0.4,1.8-0.2,2.4,0.4l29.2,29.2c0.6,0.6,0.8,1.6,0.4,2.4l-4.9,10.2c-0.3,0.6-0.9,1.1-1.6,1.2
		C101.2,142.1,101.1,142.1,101,142.1z M70.2,106.2l30.2,30.2l3-6.1l-27-27L70.2,106.2z"/>
</g>
<g>
	<line class="st2" x1="123.7" y1="124.7" x2="81.6" y2="82.7"/>
	<path d="M123.7,126.9c-0.5,0-1.1-0.2-1.5-0.6L80.1,84.2c-0.8-0.8-0.8-2.2,0-3c0.8-0.8,2.2-0.8,3,0l42.1,42.1c0.8,0.8,0.8,2.2,0,3
		C124.7,126.7,124.2,126.9,123.7,126.9z"/>
</g>
<g>
	<path class="st3" d="M49.4,107.2"/>
</g>
<g>
	<polygon class="st1" points="111,134.8 71.7,95.6 81.6,82.7 123.7,124.7 	"/>
	<path d="M111,137c-0.6,0-1.1-0.2-1.5-0.6L70.2,97.1c-0.8-0.8-0.8-2-0.2-2.8l9.9-12.9c0.4-0.5,0.9-0.8,1.6-0.8
		c0.6,0,1.2,0.2,1.7,0.6l42.1,42.1c0.4,0.4,0.7,1,0.6,1.6c0,0.6-0.3,1.2-0.8,1.6l-12.7,10.1C111.9,136.8,111.4,137,111,137z
		 M74.5,95.4l36.6,36.6l9.3-7.4L81.8,85.9L74.5,95.4z"/>
</g>
<g>
	<g>
		<line class="st2" x1="188.4" y1="90.6" x2="179.3" y2="90.6"/>
		<path d="M188.4,92.7h-9.1c-1.2,0-2.1-1-2.1-2.1s1-2.1,2.1-2.1h9.1c1.2,0,2.1,1,2.1,2.1S189.5,92.7,188.4,92.7z"/>
	</g>
	<g>
		<line class="st2" x1="183.8" y1="95.1" x2="183.8" y2="86"/>
		<path d="M183.8,97.3c-1.2,0-2.1-1-2.1-2.1V86c0-1.2,1-2.1,2.1-2.1s2.1,1,2.1,2.1v9.1C186,96.3,185,97.3,183.8,97.3z"/>
	</g>
	<rect x="185.2" y="117.9" class="st1" width="7.1" height="7.1"/>
	<g>
		<line class="st2" x1="115.9" y1="18.2" x2="115.9" y2="27.3"/>
		<path d="M115.9,29.4c-1.2,0-2.1-1-2.1-2.1v-9.1c0-1.2,1-2.1,2.1-2.1s2.1,1,2.1,2.1v9.1C118.1,28.4,117.1,29.4,115.9,29.4z"/>
	</g>
	<g>
		<line class="st2" x1="111.4" y1="22.7" x2="120.5" y2="22.7"/>
		<path d="M120.5,24.9h-9.1c-1.2,0-2.1-1-2.1-2.1s1-2.1,2.1-2.1h9.1c1.2,0,2.1,1,2.1,2.1S121.7,24.9,120.5,24.9z"/>
	</g>
	
		<rect x="81.5" y="14.2" transform="matrix(4.637097e-11 -1 1 4.637097e-11 67.2638 102.8312)" class="st1" width="7.1" height="7.1"/>
</g>
<g>
	<g>
		<line class="st2" x1="46.8" y1="87.8" x2="55.9" y2="87.8"/>
		<path d="M55.9,89.9h-9.1c-1.2,0-2.1-1-2.1-2.1s1-2.1,2.1-2.1h9.1c1.2,0,2.1,1,2.1,2.1S57.1,89.9,55.9,89.9z"/>
	</g>
	<g>
		<line class="st2" x1="51.3" y1="83.2" x2="51.3" y2="92.3"/>
		<path d="M51.3,94.5c-1.2,0-2.1-1-2.1-2.1v-9.1c0-1.2,1-2.1,2.1-2.1s2.1,1,2.1,2.1v9.1C53.5,93.5,52.5,94.5,51.3,94.5z"/>
	</g>
	
		<rect x="42.8" y="53.3" transform="matrix(-1 -1.019307e-12 1.019307e-12 -1 92.785 113.7808)" class="st1" width="7.1" height="7.1"/>
	<g>
		<line class="st2" x1="119.2" y1="160.2" x2="119.2" y2="151.1"/>
		<path d="M119.2,162.4c-1.2,0-2.1-1-2.1-2.1v-9.1c0-1.2,1-2.1,2.1-2.1s2.1,1,2.1,2.1v9.1C121.3,161.4,120.4,162.4,119.2,162.4z"/>
	</g>
	<g>
		<line class="st2" x1="123.7" y1="155.7" x2="114.6" y2="155.7"/>
		<path d="M123.7,157.8h-9.1c-1.2,0-2.1-1-2.1-2.1s1-2.1,2.1-2.1h9.1c1.2,0,2.1,1,2.1,2.1S124.9,157.8,123.7,157.8z"/>
	</g>
	
		<rect x="146.5" y="157" transform="matrix(-4.611618e-11 1 -1 -4.611618e-11 310.6696 10.498)" class="st1" width="7.1" height="7.1"/>
</g>
</svg>
