<?xml version="1.0" encoding="utf-8"?>
<!-- Generator: Adobe Illustrator 20.0.0, SVG Export Plug-In . SVG Version: 6.00 Build 0)  -->
<svg version="1.1" id="Layer_1" xmlns="http://www.w3.org/2000/svg" xmlns:xlink="http://www.w3.org/1999/xlink" x="0px" y="0px"
	 viewBox="0 0 409.1 183.3" style="enable-background:new 0 0 409.1 183.3;" xml:space="preserve">
<style type="text/css">
	.st0{fill:#FF909C;}
	.st1{fill:#FF1751;}
	.st2{fill:#34BCB1;}
	.st3{fill:#34BCB1;stroke:#000000;stroke-width:4.2836;stroke-linecap:round;stroke-linejoin:round;stroke-miterlimit:10;}
</style>
<g>
	<path d="M203.3,90.1v21.3h-5.9V90.1h-7.5v-5.1h20.9v5.1H203.3z"/>
	<path d="M241.8,93.7c0,4.2-1.7,7-5,8.2l6.7,9.5h-7.3l-5.9-8.4h-4.1v8.4h-5.9V84.9h10c4.1,0,7,0.7,8.8,2.1
		C241,88.4,241.8,90.7,241.8,93.7z M234.7,96.9c0.7-0.7,1.1-1.7,1.1-3.1c0-1.4-0.4-2.4-1.1-2.9c-0.8-0.5-2.1-0.8-4-0.8h-4.4v7.8h4.3
		C232.6,97.9,234,97.5,234.7,96.9z"/>
	<path d="M260.2,104.6c1,1.2,2.3,1.8,4,1.8s3-0.6,4-1.8c1-1.2,1.5-2.9,1.5-5V84.9h5.9v14.8c0,3.8-1.1,6.8-3.2,8.8
		c-2.1,2.1-4.8,3.1-8.1,3.1c-3.3,0-6-1-8.2-3.1c-2.1-2.1-3.2-5-3.2-8.8V84.9h5.9v14.6C258.7,101.7,259.2,103.3,260.2,104.6z"/>
	<path d="M305,84.9v5.2h-12.3v5.7h11.7v5.2h-11.7v10.4h-5.9V84.9H305z"/>
	<path d="M333.4,84.9v5.2h-12.3v5.7h11.7v5.2h-11.7v10.4h-5.9V84.9H333.4z"/>
	<path d="M343.7,111.4V84.9h5.9v21.2h11.3v5.3H343.7z"/>
	<path d="M389.5,84.9v5.3h-13.2v5.4h11.8v5h-11.8v5.5h13.6v5.2h-19.5V84.9H389.5z"/>
	<path d="M213.6,131.8c0,4.2-1.7,7-5,8.2l6.7,9.5H208l-5.9-8.4H198v8.4h-5.9V123h10c4.1,0,7,0.7,8.8,2.1
		C212.7,126.4,213.6,128.7,213.6,131.8z M206.5,134.9c0.7-0.7,1.1-1.7,1.1-3.1c0-1.4-0.4-2.4-1.1-2.9c-0.8-0.5-2.1-0.8-4-0.8H198
		v7.8h4.3C204.3,135.9,205.7,135.6,206.5,134.9z"/>
	<path d="M231.9,142.6c1,1.2,2.3,1.8,4,1.8s3-0.6,4-1.8c1-1.2,1.5-2.9,1.5-5V123h5.9v14.8c0,3.8-1.1,6.8-3.2,8.8
		c-2.1,2.1-4.8,3.1-8.1,3.1c-3.3,0-6-1-8.2-3.1c-2.1-2.1-3.2-5-3.2-8.8V123h5.9v14.6C230.4,139.7,230.9,141.4,231.9,142.6z"/>
	<path d="M270.1,149.4h-11.6V123h10.3c1.8,0,3.3,0.2,4.6,0.6c1.3,0.4,2.3,1,2.9,1.7c1.2,1.4,1.8,2.9,1.8,4.6c0,2.1-0.7,3.6-2,4.6
		c-0.5,0.4-0.8,0.6-0.9,0.7c-0.2,0.1-0.5,0.2-0.9,0.4c1.6,0.4,2.9,1.1,3.9,2.2c1,1.1,1.5,2.5,1.5,4.2c0,1.8-0.6,3.5-1.9,4.9
		C276.3,148.6,273.8,149.4,270.1,149.4z M264.5,133.7h2.8c1.6,0,2.9-0.2,3.7-0.5c0.8-0.4,1.2-1.1,1.2-2.3c0-1.2-0.4-1.9-1.1-2.3
		c-0.7-0.4-2-0.6-3.7-0.6h-2.8V133.7z M264.5,144.4h4c1.7,0,3-0.2,3.8-0.6c0.8-0.4,1.3-1.2,1.3-2.5c0-1.2-0.4-2-1.3-2.4
		c-0.9-0.4-2.3-0.6-4.3-0.6h-3.5V144.4z"/>
	<path d="M300.5,149.4h-5.9V139l-9.2-16h6.4l5.7,9.8l5.7-9.8h6.4l-9.2,16V149.4z"/>
</g>
<g>
	<g>
		<polygon class="st0" points="72.1,142.4 37.8,108.1 18.8,108.9 16.8,162.9 71.3,161.4 		"/>
		<path d="M16.8,165.1c-0.6,0-1.1-0.2-1.5-0.6c-0.4-0.4-0.6-1-0.6-1.6l2-54c0-1.1,0.9-2,2-2.1l19-0.8c0.6,0,1.2,0.2,1.6,0.6
			l34.3,34.3c0.4,0.4,0.7,1,0.6,1.6l-0.8,19c0,1.1-1,2-2.1,2.1L16.8,165.1C16.8,165.1,16.8,165.1,16.8,165.1z M20.9,111L19,160.7
			l50.2-1.4l0.7-16.1l-33-33L20.9,111z"/>
	</g>
	<g>
		<polygon class="st1" points="94.8,127.2 112.4,144.8 130.5,144 132.4,92.7 		"/>
		<path d="M112.4,146.9c-0.6,0-1.1-0.2-1.5-0.6l-17.6-17.6c-0.4-0.4-0.6-1-0.6-1.6c0-0.6,0.3-1.1,0.7-1.5L131,91.1
			c0.6-0.6,1.6-0.7,2.3-0.4c0.8,0.4,1.3,1.2,1.2,2l-1.9,51.3c0,1.1-0.9,2-2,2.1L112.4,146.9C112.5,146.9,112.5,146.9,112.4,146.9z
			 M97.9,127.3l15.3,15.3l15.1-0.6l1.7-44.2L97.9,127.3z"/>
	</g>
	<g>
		<polygon class="st1" points="52.8,85.1 35.2,67.5 35.9,49.5 87.3,47.6 		"/>
		<path d="M52.8,87.3c-0.6,0-1.1-0.2-1.5-0.6L33.7,69.1c-0.4-0.4-0.7-1-0.6-1.6l0.8-18c0-1.1,0.9-2,2.1-2l51.3-1.9
			c0.9,0,1.7,0.5,2,1.2c0.4,0.8,0.2,1.7-0.4,2.3L54.3,86.6C53.9,87,53.4,87.3,52.8,87.3C52.8,87.3,52.8,87.3,52.8,87.3z M37.4,66.7
			L52.7,82l29.5-32.1L38,51.6L37.4,66.7z"/>
	</g>
	<g>
		<polygon class="st1" points="58.6,128.9 57.8,147.9 16.8,162.9 32.3,122.4 51.3,121.6 		"/>
		<path d="M16.8,165.1c-0.6,0-1.1-0.2-1.5-0.6c-0.6-0.6-0.8-1.5-0.5-2.3l15.5-40.5c0.3-0.8,1.1-1.3,1.9-1.4l19-0.8
			c0.6,0,1.2,0.2,1.6,0.6l7.3,7.3c0.4,0.4,0.7,1,0.6,1.6L60,148c0,0.9-0.6,1.6-1.4,1.9l-41,15C17.3,165,17,165.1,16.8,165.1z
			 M33.8,124.5l-13.3,34.8l35.3-12.9l0.7-16.6l-6-6L33.8,124.5z"/>
	</g>
	<g>
		<path class="st2" d="M148.8,31.3c0,0-26.9-13.8-58.2,14.1C77.4,57.3,41.9,97.1,42.9,98c0.9,0.9,19.6,19.6,19.6,19.6l0.1,0.1
			c0,0,18.6,18.6,19.6,19.6c0.9,0.9,40.8-34.5,52.6-47.7c28-31.2,14.1-58.2,14.1-58.2L148.8,31.3z"/>
		<path d="M82.2,139.5c-0.6,0-1.2-0.2-1.6-0.6L41.4,99.6c-0.4-0.4-0.7-1-0.6-1.6c0-0.8,0.1-2.4,19.5-24c9.4-10.5,22-23.9,28.9-30.1
			c32-28.6,59.4-15,60.6-14.4c0.2,0.1,0.4,0.2,0.5,0.4l0.1,0.1c0.2,0.2,0.3,0.3,0.4,0.5c0.6,1.2,14.2,28.6-14.4,60.6
			c-6.2,6.9-19.6,19.5-30.1,28.9C84.7,139.4,83.1,139.4,82.2,139.5C82.3,139.5,82.2,139.5,82.2,139.5z M45.5,97.7l37,37
			c6.7-4.9,39.5-34,50.7-46.5c24.6-27.4,15.7-51.4,14.1-55.2c-4-1.8-27.6-10.7-55.2,14.1C79.5,58.2,50.5,90.9,45.5,97.7z"/>
	</g>
	<g>
		
			<ellipse transform="matrix(0.7071 -0.7071 0.7071 0.7071 -6.3142 102.8119)" class="st1" cx="120.9" cy="59" rx="15.7" ry="15.7"/>
		<path d="M120.9,76.9c-4.6,0-9.1-1.7-12.6-5.2c-7-7-7-18.3,0-25.3c7-7,18.3-7,25.3,0c7,7,7,18.3,0,25.3
			C130.1,75.1,125.5,76.9,120.9,76.9z M120.9,45.5c-3.5,0-7,1.3-9.6,4c-5.3,5.3-5.3,13.9,0,19.2c5.3,5.3,13.9,5.3,19.2,0
			c5.3-5.3,5.3-13.9,0-19.2C127.9,46.8,124.4,45.5,120.9,45.5z"/>
	</g>
	<g>
		<ellipse transform="matrix(0.7071 -0.7071 0.7071 0.7071 -32.333 92.4341)" class="st0" cx="95.4" cy="85.2" rx="8.3" ry="8.3"/>
		<path d="M95.4,95.7c-2.7,0-5.3-1-7.4-3.1C84,88.6,84,81.9,88,77.9c4.1-4.1,10.7-4.1,14.8,0c4.1,4.1,4.1,10.7,0,14.8v0
			C100.8,94.7,98.1,95.7,95.4,95.7z M95.4,79.1c-1.6,0-3.2,0.6-4.4,1.8c-2.4,2.4-2.4,6.3,0,8.7c2.4,2.4,6.3,2.4,8.7,0
			c2.4-2.4,2.4-6.3,0-8.7C98.6,79.7,97,79.1,95.4,79.1z M101.3,91.1L101.3,91.1L101.3,91.1z"/>
	</g>
	<g>
		<polygon class="st2" points="77.1,132.3 48,103.1 37.7,108 72.2,142.5 		"/>
		<path d="M72.2,144.6c-0.6,0-1.1-0.2-1.5-0.6l-34.5-34.5c-0.5-0.5-0.7-1.2-0.6-1.9c0.1-0.7,0.6-1.3,1.2-1.6l10.2-4.9
			c0.8-0.4,1.8-0.2,2.4,0.4l29.2,29.2c0.6,0.6,0.8,1.6,0.4,2.4l-4.9,10.2c-0.3,0.6-0.9,1.1-1.6,1.2
			C72.4,144.6,72.3,144.6,72.2,144.6z M41.4,108.6l30.2,30.2l3-6.1l-27-27L41.4,108.6z"/>
	</g>
	<g>
		<line class="st2" x1="94.8" y1="127.2" x2="52.8" y2="85.1"/>
		<path d="M94.8,129.4c-0.5,0-1.1-0.2-1.5-0.6L51.3,86.6c-0.8-0.8-0.8-2.2,0-3c0.8-0.8,2.2-0.8,3,0l42.1,42.1c0.8,0.8,0.8,2.2,0,3
			C95.9,129.1,95.4,129.4,94.8,129.4z"/>
	</g>
	<g>
		<path class="st3" d="M20.6,109.7"/>
	</g>
	<g>
		<polygon class="st1" points="82.2,137.3 42.9,98 52.8,85.1 94.8,127.2 		"/>
		<path d="M82.2,139.4c-0.6,0-1.1-0.2-1.5-0.6L41.4,99.6c-0.8-0.8-0.8-2-0.2-2.8l9.9-12.9c0.4-0.5,0.9-0.8,1.6-0.8
			c0.6,0,1.2,0.2,1.7,0.6l42.1,42.1c0.4,0.4,0.7,1,0.6,1.6c0,0.6-0.3,1.2-0.8,1.6L83.5,139C83.1,139.3,82.6,139.4,82.2,139.4z
			 M45.7,97.9l36.6,36.6l9.3-7.4L53,88.4L45.7,97.9z"/>
	</g>
	<g>
		<g>
			<line class="st2" x1="159.6" y1="93.1" x2="150.5" y2="93.1"/>
			<path d="M159.6,95.2h-9.1c-1.2,0-2.1-1-2.1-2.1s1-2.1,2.1-2.1h9.1c1.2,0,2.1,1,2.1,2.1S160.7,95.2,159.6,95.2z"/>
		</g>
		<g>
			<line class="st2" x1="155" y1="97.6" x2="155" y2="88.5"/>
			<path d="M155,99.8c-1.2,0-2.1-1-2.1-2.1v-9.1c0-1.2,1-2.1,2.1-2.1s2.1,1,2.1,2.1v9.1C157.2,98.8,156.2,99.8,155,99.8z"/>
		</g>
		<rect x="156.4" y="120.4" class="st1" width="7.1" height="7.1"/>
		<g>
			<line class="st2" x1="87.1" y1="20.6" x2="87.1" y2="29.7"/>
			<path d="M87.1,31.9c-1.2,0-2.1-1-2.1-2.1v-9.1c0-1.2,1-2.1,2.1-2.1s2.1,1,2.1,2.1v9.1C89.3,30.9,88.3,31.9,87.1,31.9z"/>
		</g>
		<g>
			<line class="st2" x1="82.6" y1="25.2" x2="91.7" y2="25.2"/>
			<path d="M91.7,27.3h-9.1c-1.2,0-2.1-1-2.1-2.1s1-2.1,2.1-2.1h9.1c1.2,0,2.1,1,2.1,2.1S92.9,27.3,91.7,27.3z"/>
		</g>
		
			<rect x="52.7" y="16.7" transform="matrix(4.637097e-11 -1 1 4.637097e-11 35.9757 76.5089)" class="st1" width="7.1" height="7.1"/>
	</g>
	<g>
		<g>
			<line class="st2" x1="18" y1="90.3" x2="27.1" y2="90.3"/>
			<path d="M27.1,92.4H18c-1.2,0-2.1-1-2.1-2.1s1-2.1,2.1-2.1h9.1c1.2,0,2.1,1,2.1,2.1S28.2,92.4,27.1,92.4z"/>
		</g>
		<g>
			<line class="st2" x1="22.5" y1="85.7" x2="22.5" y2="94.8"/>
			<path d="M22.5,97c-1.2,0-2.1-1-2.1-2.1v-9.1c0-1.2,1-2.1,2.1-2.1s2.1,1,2.1,2.1v9.1C24.7,96,23.7,97,22.5,97z"/>
		</g>
		
			<rect x="14" y="55.8" transform="matrix(-1 -1.528678e-12 1.528678e-12 -1 35.1745 118.7466)" class="st1" width="7.1" height="7.1"/>
		<g>
			<line class="st2" x1="90.4" y1="162.7" x2="90.4" y2="153.6"/>
			<path d="M90.4,164.8c-1.2,0-2.1-1-2.1-2.1v-9.1c0-1.2,1-2.1,2.1-2.1s2.1,1,2.1,2.1v9.1C92.5,163.9,91.6,164.8,90.4,164.8z"/>
		</g>
		<g>
			<line class="st2" x1="94.9" y1="158.1" x2="85.8" y2="158.1"/>
			<path d="M94.9,160.3h-9.1c-1.2,0-2.1-1-2.1-2.1s1-2.1,2.1-2.1h9.1c1.2,0,2.1,1,2.1,2.1S96.1,160.3,94.9,160.3z"/>
		</g>
		
			<rect x="117.7" y="159.5" transform="matrix(-4.611618e-11 1 -1 -4.611618e-11 284.3473 41.7861)" class="st1" width="7.1" height="7.1"/>
	</g>
</g>
</svg>
