<?xml version="1.0" encoding="UTF-8" standalone="no"?>
<!-- Generator: Adobe Illustrator 20.0.0, SVG Export Plug-In . SVG Version: 6.00 Build 0)  -->

<svg
   xmlns:dc="http://purl.org/dc/elements/1.1/"
   xmlns:cc="http://creativecommons.org/ns#"
   xmlns:rdf="http://www.w3.org/1999/02/22-rdf-syntax-ns#"
   xmlns:svg="http://www.w3.org/2000/svg"
   xmlns="http://www.w3.org/2000/svg"
   xmlns:sodipodi="http://sodipodi.sourceforge.net/DTD/sodipodi-0.dtd"
   xmlns:inkscape="http://www.inkscape.org/namespaces/inkscape"
   version="1.1"
   id="Layer_1"
   x="0px"
   y="0px"
   viewBox="0 0 185 184.99999"
   xml:space="preserve"
   inkscape:version="0.91 r13725"
   sodipodi:docname="truffle ruby symbol.svg"
   width="185"
   height="185"><metadata
     id="metadata133"><rdf:RDF><cc:Work
         rdf:about=""><dc:format>image/svg+xml</dc:format><dc:type
           rdf:resource="http://purl.org/dc/dcmitype/StillImage" /><dc:title></dc:title></cc:Work></rdf:RDF></metadata><defs
     id="defs131" /><sodipodi:namedview
     pagecolor="#ffffff"
     bordercolor="#666666"
     borderopacity="1"
     objecttolerance="10"
     gridtolerance="10"
     guidetolerance="10"
     inkscape:pageopacity="0"
     inkscape:pageshadow="2"
     inkscape:window-width="1107"
     inkscape:window-height="1060"
     id="namedview129"
     showgrid="false"
     inkscape:zoom="1.2513255"
     inkscape:cx="69.650844"
     inkscape:cy="69.800008"
     inkscape:window-x="1673"
     inkscape:window-y="925"
     inkscape:window-maximized="0"
     inkscape:current-layer="Layer_1" /><style
     type="text/css"
     id="style3">
	.st0{fill:#FF909C;}
	.st1{fill:#FF1751;}
	.st2{fill:#34BCB1;}
	.st3{fill:none;}
	.st4{fill:#34BCB1;stroke:#000000;stroke-width:4.2836;stroke-linecap:round;stroke-linejoin:round;stroke-miterlimit:10;}
</style><g
     id="g4261"
     transform="translate(-25.099999,3.3499925)"><g
       id="g5"><polygon
         id="polygon7"
         points="45.6,160.4 100.1,158.9 100.9,139.9 66.6,105.6 47.6,106.4 "
         class="st0"
         style="fill:#ff909c" /><path
         id="path9"
         d="m 45.6,162.6 c -0.6,0 -1.1,-0.2 -1.5,-0.6 -0.4,-0.4 -0.6,-1 -0.6,-1.6 l 2,-54 c 0,-1.1 0.9,-2 2.1,-2.1 l 19,-0.8 c 0.6,0 1.2,0.2 1.6,0.6 l 34.3,34.3 c 0.4,0.4 0.7,1 0.6,1.6 l -0.8,19 c 0,1.1 -1,2 -2.1,2.1 l -54.6,1.5 0,0 z m 4.1,-54.1 -1.9,49.8 50.2,-1.4 0.7,-16.1 -33,-33 -16,0.7 z"
         inkscape:connector-curvature="0" /></g><g
       id="g11"><polygon
         id="polygon13"
         points="123.7,124.7 141.2,142.3 159.3,141.6 161.2,90.2 "
         class="st1"
         style="fill:#ff1751" /><path
         id="path15"
         d="m 141.2,144.5 c -0.6,0 -1.1,-0.2 -1.5,-0.6 l -17.6,-17.6 c -0.4,-0.4 -0.6,-1 -0.6,-1.6 0,-0.6 0.3,-1.1 0.7,-1.5 l 37.6,-34.5 c 0.6,-0.6 1.6,-0.7 2.3,-0.4 0.8,0.4 1.3,1.2 1.2,2 l -1.9,51.3 c 0,1.1 -0.9,2 -2.1,2.1 l -18.1,0.8 c 0.1,0 0.1,0 0,0 z m -14.5,-19.7 15.3,15.3 15.1,-0.6 1.7,-44.2 -32.1,29.5 z"
         inkscape:connector-curvature="0" /></g><g
       id="g17"><polygon
         id="polygon19"
         points="81.6,82.7 64,65.1 64.7,47 116.1,45.1 "
         class="st1"
         style="fill:#ff1751" /><path
         id="path21"
         d="m 81.6,84.8 c -0.6,0 -1.1,-0.2 -1.5,-0.6 L 62.5,66.6 c -0.4,-0.4 -0.7,-1 -0.6,-1.6 l 0.8,-18 c 0,-1.1 0.9,-2 2.1,-2 L 116,43 c 0.9,0 1.7,0.5 2,1.2 0.3,0.7 0.2,1.7 -0.4,2.3 L 83.1,84.1 c -0.3,0.4 -0.9,0.7 -1.5,0.7 l 0,0 z M 66.2,64.2 81.5,79.5 111,47.4 66.8,49.1 66.2,64.2 Z"
         inkscape:connector-curvature="0" /></g><g
       id="g23"><polygon
         id="polygon25"
         points="61.1,119.9 80.1,119.1 87.4,126.4 86.6,145.4 45.6,160.4 "
         class="st1"
         style="fill:#ff1751" /><path
         id="path27"
         d="m 45.6,162.6 c -0.6,0 -1.1,-0.2 -1.5,-0.6 -0.6,-0.6 -0.8,-1.5 -0.5,-2.3 l 15.5,-40.5 c 0.3,-0.8 1.1,-1.3 1.9,-1.4 L 80,117 c 0.6,0 1.2,0.2 1.6,0.6 l 7.3,7.3 c 0.4,0.4 0.7,1 0.6,1.6 l -0.8,19 c 0,0.9 -0.6,1.6 -1.4,1.9 l -41,15 c -0.2,0.1 -0.5,0.2 -0.7,0.2 z m 17,-40.6 -13.3,34.8 35.3,-12.9 0.7,-16.6 -6,-6 -16.7,0.7 z"
         inkscape:connector-curvature="0" /></g><g
       id="g29"><path
         id="path31"
         d="m 177.6,28.8 c 0,0 -26.9,-13.8 -58.2,14.1 -13.2,11.8 -48.7,51.7 -47.7,52.6 0.9,0.9 19.6,19.6 19.6,19.6 l 0.1,0.1 c 0,0 18.6,18.6 19.6,19.6 1,1 40.8,-34.5 52.6,-47.7 28,-31.2 14.1,-58.2 14.1,-58.2 l -0.1,-0.1 z"
         class="st2"
         inkscape:connector-curvature="0"
         style="fill:#34bcb1" /><path
         id="path33"
         d="m 111,137 c -0.6,0 -1.2,-0.2 -1.6,-0.6 L 70.2,97.1 c -0.4,-0.4 -0.7,-1 -0.6,-1.6 0,-0.8 0.1,-2.4 19.5,-24 9.4,-10.5 22,-23.9 28.9,-30.1 32,-28.6 59.4,-15 60.6,-14.4 0.2,0.1 0.4,0.2 0.5,0.4 l 0.1,0.1 c 0.2,0.2 0.3,0.3 0.4,0.5 0.6,1.2 14.2,28.6 -14.4,60.6 -6.2,6.9 -19.6,19.5 -30.1,28.9 -21.6,19.4 -23.2,19.5 -24.1,19.5 0.1,0 0,0 0,0 z m -36.6,-41.8 37,37 c 6.7,-4.9 39.5,-34 50.7,-46.5 24.5,-27.4 15.7,-51.4 14.1,-55.2 -4,-1.8 -27.6,-10.7 -55.2,14.1 -12.7,11.1 -41.7,43.9 -46.6,50.6 z"
         inkscape:connector-curvature="0" /></g><g
       id="g35"><circle
         id="ellipse37"
         cy="56.5"
         cx="149.8"
         class="st1"
         transform="matrix(0.7071,-0.7071,0.7071,0.7071,3.9239,122.4342)"
         r="15.7"
         style="fill:#ff1751" /><path
         id="path39"
         d="m 149.8,74.4 c -4.6,0 -9.1,-1.7 -12.6,-5.2 -7,-7 -7,-18.3 0,-25.3 7,-7 18.3,-7 25.3,0 7,7 7,18.3 0,25.3 -3.6,3.5 -8.2,5.2 -12.7,5.2 z m 0,-31.4 c -3.5,0 -7,1.3 -9.6,4 -5.3,5.3 -5.3,13.9 0,19.2 5.3,5.3 13.9,5.3 19.2,0 2.6,-2.6 4,-6 4,-9.6 0,-3.6 -1.4,-7 -4,-9.6 -2.7,-2.7 -6.2,-4 -9.6,-4 z"
         inkscape:connector-curvature="0" /></g><g
       id="g41"><circle
         id="ellipse43"
         cy="82.800003"
         cx="124.2"
         class="st0"
         transform="matrix(0.7071,-0.7071,0.7071,0.7071,-22.1635,112.0953)"
         r="8.3000002"
         style="fill:#ff909c" /><path
         id="path45"
         d="m 124.2,93.2 c -2.7,0 -5.3,-1 -7.4,-3.1 -2,-2 -3.1,-4.6 -3.1,-7.4 0,-2.8 1.1,-5.4 3.1,-7.4 4.1,-4.1 10.7,-4.1 14.8,0 2,2 3.1,4.6 3.1,7.4 0,2.8 -1.1,5.4 -3.1,7.4 -2,2.1 -4.7,3.1 -7.4,3.1 z m 0,-16.6 c -1.6,0 -3.2,0.6 -4.4,1.8 -1.2,1.2 -1.8,2.7 -1.8,4.4 0,1.6 0.6,3.2 1.8,4.4 2.4,2.4 6.3,2.4 8.7,0 1.2,-1.2 1.8,-2.7 1.8,-4.4 0,-1.6 -0.6,-3.2 -1.8,-4.4 -1.1,-1.2 -2.7,-1.8 -4.3,-1.8 z"
         inkscape:connector-curvature="0" /></g><g
       id="g47"><polygon
         id="polygon49"
         points="105.9,129.8 76.8,100.6 66.5,105.5 101,140 "
         class="st2"
         style="fill:#34bcb1" /><path
         id="path51"
         d="m 101,142.1 c -0.6,0 -1.1,-0.2 -1.5,-0.6 L 65,107.1 c -0.5,-0.5 -0.7,-1.2 -0.6,-1.9 0.1,-0.7 0.6,-1.3 1.2,-1.6 l 10.2,-4.9 c 0.8,-0.4 1.8,-0.2 2.4,0.4 l 29.2,29.2 c 0.6,0.6 0.8,1.6 0.4,2.4 l -4.9,10.2 c -0.3,0.6 -0.9,1.1 -1.6,1.2 -0.1,0 -0.2,0 -0.3,0 z m -30.8,-35.9 30.2,30.2 3,-6.1 -27,-27 -6.2,2.9 z"
         inkscape:connector-curvature="0" /></g><g
       id="g53"><line
         id="line55"
         y2="82.699997"
         x2="81.599998"
         y1="124.7"
         x1="123.7"
         class="st3"
         style="fill:none" /><path
         id="path57"
         d="m 123.7,126.9 c -0.5,0 -1.1,-0.2 -1.5,-0.6 L 80.1,84.2 c -0.8,-0.8 -0.8,-2.2 0,-3 0.8,-0.8 2.2,-0.8 3,0 l 42.1,42.1 c 0.8,0.8 0.8,2.2 0,3 -0.5,0.4 -1,0.6 -1.5,0.6 z"
         inkscape:connector-curvature="0" /></g><g
       id="g59"><path
         id="path61"
         d="M 49.4,107.2"
         class="st4"
         inkscape:connector-curvature="0"
         style="fill:#34bcb1;stroke:#000000;stroke-width:4.28359985;stroke-linecap:round;stroke-linejoin:round;stroke-miterlimit:10" /></g><g
       id="g63"><polygon
         id="polygon65"
         points="111,134.8 71.7,95.6 81.6,82.7 123.7,124.7 "
         class="st1"
         style="fill:#ff1751" /><path
         id="path67"
         d="m 111,137 c -0.6,0 -1.1,-0.2 -1.5,-0.6 L 70.2,97.1 c -0.8,-0.8 -0.8,-2 -0.2,-2.8 l 9.9,-12.9 c 0.4,-0.5 0.9,-0.8 1.6,-0.8 0.6,0 1.2,0.2 1.7,0.6 l 42.1,42.1 c 0.4,0.4 0.7,1 0.6,1.6 0,0.6 -0.3,1.2 -0.8,1.6 l -12.7,10.1 c -0.5,0.2 -1,0.4 -1.4,0.4 z m -36.5,-41.6 36.6,36.6 9.3,-7.4 -38.6,-38.7 -7.3,9.5 z"
         inkscape:connector-curvature="0" /></g><g
       id="g69"><g
         id="g71"><line
           id="line73"
           y2="90.599998"
           x2="179.3"
           y1="90.599998"
           x1="188.39999"
           class="st3"
           style="fill:none" /><path
           id="path75"
           d="m 188.4,92.7 -9.1,0 c -1.2,0 -2.1,-1 -2.1,-2.1 0,-1.1 1,-2.1 2.1,-2.1 l 9.1,0 c 1.2,0 2.1,1 2.1,2.1 0,1.1 -1,2.1 -2.1,2.1 z"
           inkscape:connector-curvature="0" /></g><g
         id="g77"><line
           id="line79"
           y2="86"
           x2="183.8"
           y1="95.099998"
           x1="183.8"
           class="st3"
           style="fill:none" /><path
           id="path81"
           d="m 183.8,97.3 c -1.2,0 -2.1,-1 -2.1,-2.1 l 0,-9.2 c 0,-1.2 1,-2.1 2.1,-2.1 1.1,0 2.1,1 2.1,2.1 l 0,9.1 c 0.1,1.2 -0.9,2.2 -2.1,2.2 z"
           inkscape:connector-curvature="0" /></g><rect
         id="rect83"
         height="7.0999999"
         width="7.0999999"
         class="st1"
         y="117.9"
         x="185.2"
         style="fill:#ff1751" /><g
         id="g85"><line
           id="line87"
           y2="27.299999"
           x2="115.9"
           y1="18.200001"
           x1="115.9"
           class="st3"
           style="fill:none" /><path
           id="path89"
           d="m 115.9,29.4 c -1.2,0 -2.1,-1 -2.1,-2.1 l 0,-9.1 c 0,-1.2 1,-2.1 2.1,-2.1 1.1,0 2.1,1 2.1,2.1 l 0,9.1 c 0.1,1.1 -0.9,2.1 -2.1,2.1 z"
           inkscape:connector-curvature="0" /></g><g
         id="g91"><line
           id="line93"
           y2="22.700001"
           x2="120.5"
           y1="22.700001"
           x1="111.4"
           class="st3"
           style="fill:none" /><path
           id="path95"
           d="m 120.5,24.9 -9.1,0 c -1.2,0 -2.1,-1 -2.1,-2.1 0,-1.1 1,-2.1 2.1,-2.1 l 9.1,0 c 1.2,0 2.1,1 2.1,2.1 0,1.1 -0.9,2.1 -2.1,2.1 z"
           inkscape:connector-curvature="0" /></g><rect
         id="rect97"
         height="7.0999999"
         width="7.0999999"
         class="st1"
         y="14.2"
         x="81.5"
         style="fill:#ff1751" /></g><g
       id="g99"><g
         id="g101"><line
           id="line103"
           y2="87.800003"
           x2="55.900002"
           y1="87.800003"
           x1="46.799999"
           class="st3"
           style="fill:none" /><path
           id="path105"
           d="m 55.9,89.9 -9.1,0 c -1.2,0 -2.1,-1 -2.1,-2.1 0,-1.1 1,-2.1 2.1,-2.1 l 9.1,0 c 1.2,0 2.1,1 2.1,2.1 0,1.1 -0.9,2.1 -2.1,2.1 z"
           inkscape:connector-curvature="0" /></g><g
         id="g107"><line
           id="line109"
           y2="92.300003"
           x2="51.299999"
           y1="83.199997"
           x1="51.299999"
           class="st3"
           style="fill:none" /><path
           id="path111"
           d="m 51.3,94.5 c -1.2,0 -2.1,-1 -2.1,-2.1 l 0,-9.1 c 0,-1.2 1,-2.1 2.1,-2.1 1.1,0 2.1,1 2.1,2.1 l 0,9.1 c 0.1,1.1 -0.9,2.1 -2.1,2.1 z"
           inkscape:connector-curvature="0" /></g><rect
         id="rect113"
         height="7.0999999"
         width="7.0999999"
         class="st1"
         y="53.400002"
         x="42.900002"
         style="fill:#ff1751" /><g
         id="g115"><line
           id="line117"
           y2="151.10001"
           x2="119.2"
           y1="160.2"
           x1="119.2"
           class="st3"
           style="fill:none" /><path
           id="path119"
           d="m 119.2,162.4 c -1.2,0 -2.1,-1 -2.1,-2.1 l 0,-9.1 c 0,-1.2 1,-2.1 2.1,-2.1 1.1,0 2.1,1 2.1,2.1 l 0,9.1 c 0,1.1 -0.9,2.1 -2.1,2.1 z"
           inkscape:connector-curvature="0" /></g><g
         id="g121"><line
           id="line123"
           y2="155.7"
           x2="114.6"
           y1="155.7"
           x1="123.7"
           class="st3"
           style="fill:none" /><path
           id="path125"
           d="m 123.7,157.8 -9.1,0 c -1.2,0 -2.1,-1 -2.1,-2.1 0,-1.1 1,-2.1 2.1,-2.1 l 9.1,0 c 1.2,0 2.1,1 2.1,2.1 0,1.1 -0.9,2.1 -2.1,2.1 z"
           inkscape:connector-curvature="0" /></g><rect
         id="rect127"
         height="7.0999999"
         width="7.0999999"
         class="st1"
         y="157"
         x="146.60001"
         style="fill:#ff1751" /></g></g></svg>