<?xml version="1.0" encoding="utf-8"?>
<!-- Generator: Adobe Illustrator 21.0.2, SVG Export Plug-In . SVG Version: 6.00 Build 0)  -->
<svg version="1.1" id="Layer_1" xmlns="http://www.w3.org/2000/svg" xmlns:xlink="http://www.w3.org/1999/xlink" x="0px" y="0px"
	 viewBox="0 0 512 512" style="enable-background:new 0 0 512 512;" xml:space="preserve">
<style type="text/css">
	.st0{fill:#FF909C;}
	.st1{fill:#FF1751;}
	.st2{fill:#34BCB1;}
</style>
<g>
	<path class="st0" d="M165.8,448.6c-0.1,3.2-2.2,5.9-5.1,7L55.8,494.1l144.1-4.1l2.5-58.7L168,396.9L165.8,448.6z"/>
	<path class="st0" d="M64.3,347.1l51.6-2.2l-34.3-34.3l-58.8,2.5l-5.4,143.1l39.8-104.1C58.4,349.2,61.2,347.2,64.3,347.1z"/>
	<path class="st1" d="M416.3,426.6l6.1-161.8L405.9,280c-29.6,28.5-68.8,64.8-100.9,93l56,56L416.3,426.6z"/>
	<polygon class="st1" points="247.3,89.7 85.5,95.8 83.1,151.1 139.3,207.2 	"/>
	<polygon class="st1" points="21.3,490 150.4,442.7 153,381.9 142,370.9 131,359.9 70.1,362.5 	"/>
	<polygon class="st1" points="131,359.9 131,359.9 142,370.9 	"/>
	<path class="st2" d="M405,259.5c11.5-11.3,21.5-21.6,28.9-29.8c90.6-101.3,57.9-187.8,51.5-202.2C471,21.1,384.4-11.6,283.2,79.1
		c-31.5,28.2-91.8,93.8-132.1,140l142.7,142.7L405,259.5z M342.8,76.8c25.5-25.5,66.9-25.5,92.4,0c25.5,25.5,25.5,66.9,0,92.4
		c-12.7,12.7-29.5,19.1-46.2,19.1c-16.7,0-33.5-6.4-46.2-19.1C317.3,143.8,317.3,102.3,342.8,76.8z M268.6,192
		c14.9-14.9,39.1-14.9,54,0c14.9,14.9,14.9,39.1,0,54c-7.4,7.4-17.2,11.2-27,11.2c-9.8,0-19.6-3.7-27-11.2
		C253.7,231.1,253.7,206.9,268.6,192z"/>
	<path class="st2" d="M293.8,361.8c34.1-29.8,78.7-70.4,111.1-102.3L293.7,361.7L293.8,361.8z"/>
	<path class="st1" d="M424.2,158.1c19.4-19.4,19.4-50.9,0-70.2c-9.7-9.7-22.4-14.5-35.1-14.5c-12.7,0-25.4,4.8-35.1,14.5
		c-19.4,19.4-19.4,50.9,0,70.2C373.3,177.5,404.8,177.5,424.2,158.1z"/>
	<path class="st0" d="M311.5,234.9c8.8-8.8,8.8-23.1,0-31.9c-4.4-4.4-10.2-6.6-15.9-6.6c-5.8,0-11.5,2.2-15.9,6.6
		c-8.8,8.8-8.8,23.1,0,31.9C288.4,243.7,302.7,243.7,311.5,234.9z"/>
	<polygon class="st2" points="120.3,293.8 97.8,304.6 208.3,415 219.1,392.6 190.6,364.1 	"/>
	<polygon class="st2" points="219.1,392.6 219.1,392.6 190.6,364.1 	"/>
	<path class="st1" d="M140.8,230.9c-2.8,3.2-5.4,6.3-7.9,9.2l-19.1,25c16,16,65.2,65.2,66.8,66.8c0,0,0,0,0,0l67.1,67.1l34.1-27.1
		L140.8,230.9z"/>
	<path class="st1" d="M180.5,331.9c-1.6-1.6-50.7-50.8-66.8-66.8l0,0l13.6,13.6c0,0,0,0,0,0L180.5,331.9z"/>
	<polygon class="st1" points="234.1,385.5 234.1,385.5 247.7,399 247.7,399 180.6,331.9 	"/>
	<path class="st1" d="M140.3,230.4l-7.4,9.7c2.5-2.9,5.1-6,7.9-9.2L140.3,230.4z"/>
	<path class="st1" d="M180.6,331.9C180.6,331.9,180.6,331.9,180.6,331.9l-53.2-53.2c0,0,0,0,0,0l106.7,106.7c0,0,0,0,0,0
		L180.6,331.9z"/>
	<g>
		<path d="M498.4,18.4c-0.4-0.7-0.8-1.4-1.4-2l-0.5-0.5c-0.6-0.6-1.3-1.1-2-1.4c-4.2-2.2-104.7-51.8-221.7,52.9
			c-1.8,1.6-4,3.6-6.4,6c-0.3,0-0.6,0-0.8,0L77.7,80.4c-4.1,0.2-7.4,3.4-7.5,7.5l-2.8,66c-0.1,2.2,0.7,4.3,2.3,5.9l59.5,59.5
			l-9.1,11.9c-10.8,12.9-18.8,23.3-22.4,29.3l-0.4,0.6c-0.8,1-1.3,2.2-1.5,3.3c-0.1,0.4-0.2,0.7-0.2,1c0,0.9,0.1,1.8,0.4,2.6
			c0.4,1.2,1,2.4,2,3.4l0,0l10.7,10.7l-26.7,12.9L15,297.7c-4.1,0.2-7.3,3.4-7.5,7.5L0,502.9c0,0,0,0,0,0l0,0c0,0.3,0,0.5,0,0.8
			c0,0,0,0,0,0c0,0.3,0.1,0.7,0.1,1c0,0.1,0,0.2,0.1,0.3c0.1,0.3,0.1,0.5,0.2,0.7c0,0.1,0,0.2,0.1,0.2c0.1,0.3,0.2,0.6,0.4,0.9
			C1,507,1,507,1,507.1c0.1,0.2,0.3,0.5,0.4,0.7c0.1,0.1,0.1,0.2,0.2,0.2c0.2,0.3,0.4,0.5,0.6,0.7c0,0,0,0,0,0c0,0,0,0,0,0
			c0,0,0,0,0,0c0.1,0.1,0.2,0.2,0.3,0.3c0.6,0.6,1.3,1,2.1,1.4c0.1,0,0.1,0.1,0.2,0.1c0.1,0.1,0.3,0.1,0.4,0.1
			c0.1,0,0.2,0.1,0.3,0.1c0.1,0,0.2,0.1,0.3,0.1c0.1,0,0.3,0.1,0.4,0.1c0.1,0,0.2,0,0.4,0.1c0.1,0,0.3,0,0.4,0.1c0.3,0,0.5,0,0.8,0
			c0.1,0,0.1,0,0.2,0l199.5-5.7c4.1-0.1,7.4-3.4,7.6-7.5l2.8-66.8l12.9-26.7l10.7,10.7c0.1,0.1,0.2,0.2,0.4,0.3
			c0.9,0.8,1.9,1.3,3,1.7c0.8,0.2,1.6,0.4,2.4,0.4c0.1,0,0.1,0,0.2,0c0.3,0,0.7-0.1,1.1-0.2c1.2-0.2,2.3-0.7,3.3-1.5l0.3-0.3
			c7.7-4.6,22.5-16.5,40.8-32.1l59.2,59.2c1.5,1.5,3.5,2.3,5.5,2.3c0.1,0,0.2,0,0.3,0l66-2.8c4.1-0.2,7.3-3.4,7.5-7.5l7.1-187
			c2.7-2.8,5-5.2,6.8-7.2C550.2,123.2,500.5,22.7,498.4,18.4z M422.4,264.8l-6.1,161.8l-55.3,2.3l-56-56
			c32.1-28.1,71.3-64.4,100.9-93L422.4,264.8z M219.1,392.6L208.3,415L97.8,304.6l22.4-10.8l70.3,70.3L219.1,392.6L219.1,392.6z
			 M70.1,362.5l60.9-2.6h0l11,11l11,11l-2.6,60.8L21.3,490L70.1,362.5z M22.9,313.1l58.8-2.5l34.3,34.3l-51.6,2.2
			c-3.1,0.1-5.9,2.1-7,5L17.5,456.2L22.9,313.1z M160.7,455.6c3-1.1,5-3.9,5.1-7l2.2-51.6l34.3,34.3l-2.5,58.7l-144.1,4.1
			L160.7,455.6z M234.1,385.5L127.4,278.8l-13.6-13.6l0,0l19.1-25l7.4-9.7l0.5,0.5l141,141L247.7,399l0,0L234.1,385.5z M85.5,95.8
			l161.8-6.1l-108,117.6l-56.1-56.1L85.5,95.8z M433.8,229.7c-7.4,8.3-17.4,18.5-28.9,29.8c-32.4,31.9-77.1,72.5-111.1,102.3
			l-0.1-0.1L151.1,219c40.3-46.1,100.6-111.8,132.1-140c101.2-90.6,187.8-58,202.1-51.5C491.8,41.9,524.4,128.4,433.8,229.7z"/>
		<path d="M342.8,76.8c-25.5,25.5-25.5,66.9,0,92.4c12.7,12.7,29.5,19.1,46.2,19.1c16.7,0,33.5-6.4,46.2-19.1
			c25.5-25.5,25.5-66.9,0-92.4C409.7,51.3,368.3,51.4,342.8,76.8z M353.9,158.1c-19.4-19.4-19.4-50.9,0-70.2
			c9.7-9.7,22.4-14.5,35.1-14.5c12.7,0,25.4,4.8,35.1,14.5c19.4,19.4,19.4,50.9,0,70.2C404.8,177.5,373.3,177.5,353.9,158.1z"/>
		<path d="M268.6,192c-14.9,14.9-14.9,39.1,0,54c7.4,7.4,17.2,11.2,27,11.2c9.8,0,19.6-3.7,27-11.2c14.9-14.9,14.9-39.1,0-54
			C307.7,177.1,283.5,177.1,268.6,192z M279.6,234.9c-8.8-8.8-8.8-23.1,0-31.9c4.4-4.4,10.2-6.6,15.9-6.6c5.8,0,11.5,2.2,15.9,6.6
			c8.8,8.8,8.8,23.1,0,31.9C302.7,243.7,288.4,243.7,279.6,234.9z"/>
	</g>
</g>
</svg>
